# xmcd
#
# Track frame offsets:
#	150
#	20909
#	42883
#	63709
#	94762
#	124053
#	140159
#	167015
#	195605
#	227136
#	247546
#	290938
#	324240
#	335785
#
# Disc length: 4726 seconds
#
# Revision: 1
# Processed by: cddbd v1.5.2PL0 Copyright (c) Steve Scherf et al.
# Submitted via: audiograbber 1.83.01
#
DISCID=d412740e
DTITLE=Grateful Dead - 80-10-11 Warfield Theatre, San Francisco CA
DYEAR=1900
DGENRE=
TTITLE0=Dire Wolf
TTITLE1=Dark Hollow
TTITLE2=Rosalie McFall
TTITLE3=Cassidy
TTITLE4=Deep Elem Blues
TTITLE5=Monkey and The Engineer
TTITLE6=China Doll
TTITLE7=Heaven Help The Fool
TTITLE8=It Aint No Lie
TTITLE9=Ripple
TTITLE10=Feel Like A Stranger
TTITLE11=They Love Each Other
TTITLE12=Mama Tried
TTITLE13=Mexicali Blues
EXTD=
EXTT0=
EXTT1=
EXTT2=
EXTT3=
EXTT4=
EXTT5=
EXTT6=
EXTT7=
EXTT8=
EXTT9=
EXTT10=
EXTT11=
EXTT12=
EXTT13=
PLAYORDER=
